<svg width="230" height="55" viewBox="0 0 230 55" fill="none" xmlns="http://www.w3.org/2000/svg">
<path d="M71.6465 13.6719L77.125 29.1406L82.5742 13.6719H88.3457V35H83.9365V29.1699L84.376 19.1064L78.6191 35H75.6016L69.8594 19.1211L70.2988 29.1699V35H65.9043V13.6719H71.6465ZM105.016 25.7568H96.5781V31.4697H106.48V35H92.1836V13.6719H106.451V17.2314H96.5781V22.3145H105.016V25.7568ZM109.059 35V13.6719H115.621C117.496 13.6719 119.171 14.0967 120.646 14.9463C122.13 15.7861 123.287 16.9873 124.117 18.5498C124.947 20.1025 125.362 21.8701 125.362 23.8525V24.834C125.362 26.8164 124.952 28.5791 124.132 30.1221C123.321 31.665 122.174 32.8613 120.689 33.7109C119.205 34.5605 117.53 34.9902 115.665 35H109.059ZM113.453 17.2314V31.4697H115.577C117.296 31.4697 118.609 30.9082 119.518 29.7852C120.426 28.6621 120.89 27.0557 120.909 24.9658V23.8379C120.909 21.6699 120.46 20.0293 119.562 18.916C118.663 17.793 117.35 17.2314 115.621 17.2314H113.453ZM146.09 24.8193C146.09 26.9189 145.719 28.7598 144.977 30.3418C144.234 31.9238 143.17 33.1445 141.783 34.0039C140.406 34.8633 138.824 35.293 137.037 35.293C135.27 35.293 133.692 34.8682 132.306 34.0186C130.919 33.1689 129.845 31.958 129.083 30.3857C128.321 28.8037 127.936 26.9873 127.926 24.9365V23.8818C127.926 21.7822 128.302 19.9365 129.054 18.3447C129.815 16.7432 130.885 15.5176 132.262 14.668C133.648 13.8086 135.23 13.3789 137.008 13.3789C138.785 13.3789 140.362 13.8086 141.739 14.668C143.126 15.5176 144.195 16.7432 144.947 18.3447C145.709 19.9365 146.09 21.7773 146.09 23.8672V24.8193ZM141.637 23.8525C141.637 21.6162 141.236 19.917 140.436 18.7549C139.635 17.5928 138.492 17.0117 137.008 17.0117C135.533 17.0117 134.396 17.5879 133.595 18.7402C132.794 19.8828 132.389 21.5625 132.379 23.7793V24.8193C132.379 26.9971 132.779 28.6865 133.58 29.8877C134.381 31.0889 135.533 31.6895 137.037 31.6895C138.512 31.6895 139.645 31.1133 140.436 29.9609C141.227 28.7988 141.627 27.1094 141.637 24.8926V23.8525ZM155.025 13.6719L160.504 29.1406L165.953 13.6719H171.725V35H167.315V29.1699L167.755 19.1064L161.998 35H158.98L153.238 19.1211L153.678 29.1699V35H149.283V13.6719H155.025ZM188.395 25.7568H179.957V31.4697H189.859V35H175.562V13.6719H189.83V17.2314H179.957V22.3145H188.395V25.7568ZM209.781 35H205.387L196.832 20.9668V35H192.438V13.6719H196.832L205.401 27.7344V13.6719H209.781V35ZM229.234 17.2314H222.701V35H218.307V17.2314H211.861V13.6719H229.234V17.2314Z" fill="#24315C"/>
<g clip-path="url(#clip0)">
<path d="M5.93063 54.7346H5.24301C5.20003 54.7346 5.15706 54.7346 5.11408 54.6914C5.0711 54.6483 5.0711 54.6052 5.0711 54.562V51.0248L3.52395 53.4405C3.48098 53.4836 3.438 53.5267 3.35205 53.5267C3.2661 53.5267 3.22312 53.4836 3.18014 53.4405L1.633 51.0248V54.562C1.633 54.6052 1.633 54.6483 1.59002 54.6914C1.54704 54.7346 1.50407 54.7346 1.46109 54.7346H0.773468C0.730492 54.7346 0.687515 54.7346 0.644539 54.6914C0.601563 54.6483 0.601562 54.6052 0.601562 54.562V49.2993C0.601562 49.2561 0.601563 49.213 0.644539 49.1699C0.687515 49.1267 0.730492 49.1267 0.773468 49.1267H1.50407C1.59002 49.1267 1.633 49.1699 1.67597 49.213L3.35205 51.8444L5.02813 49.213C5.0711 49.1699 5.11408 49.1267 5.20003 49.1267H5.93063C5.97361 49.1267 6.01658 49.1267 6.05956 49.1699C6.10254 49.213 6.10254 49.2561 6.10254 49.2993V54.562C6.10254 54.6052 6.10254 54.6483 6.05956 54.6914C6.01658 54.6914 5.97361 54.7346 5.93063 54.7346Z" fill="#06B7FE"/>
<path d="M11.1735 54.7346H7.86429C7.82131 54.7346 7.77834 54.7346 7.73536 54.6914C7.69238 54.6483 7.69238 54.6052 7.69238 54.562V49.2993C7.69238 49.2561 7.69238 49.213 7.73536 49.1699C7.77834 49.1267 7.82131 49.1267 7.86429 49.1267H11.1735C11.2164 49.1267 11.2594 49.1267 11.3024 49.1699C11.3454 49.213 11.3454 49.2561 11.3454 49.2993V49.9032C11.3454 49.9463 11.3454 49.9895 11.3024 50.0326C11.2594 50.0758 11.2164 50.0758 11.1735 50.0758H8.76679V51.3699H10.9586C11.0016 51.3699 11.0445 51.3699 11.0875 51.413C11.1305 51.4561 11.1305 51.4993 11.1305 51.5424V52.1463C11.1305 52.1895 11.1305 52.2326 11.0875 52.2758C11.0445 52.3189 11.0016 52.3189 10.9586 52.3189H8.76679V53.6561H11.1735C11.2164 53.6561 11.2594 53.6561 11.3024 53.6993C11.3454 53.7424 11.3454 53.7856 11.3454 53.8287V54.4326C11.3454 54.4758 11.3454 54.5189 11.3024 54.562C11.2594 54.6914 11.2164 54.7346 11.1735 54.7346Z" fill="#06B7FE"/>
<path d="M14.6976 54.7346H12.8926C12.8496 54.7346 12.8067 54.7346 12.7637 54.6914C12.7207 54.6483 12.7207 54.6052 12.7207 54.562V49.2993C12.7207 49.2561 12.7207 49.213 12.7637 49.1699C12.8067 49.1267 12.8496 49.1267 12.8926 49.1267H14.6976C15.5571 49.1267 16.2448 49.4287 16.7175 49.9895C16.9324 50.2483 17.1043 50.5503 17.2332 50.8954C17.3192 51.2405 17.4051 51.5856 17.4051 51.9307C17.4051 52.2758 17.3621 52.664 17.2332 52.9659C17.1043 53.311 16.9324 53.613 16.7175 53.8718C16.2018 54.4326 15.5571 54.7346 14.6976 54.7346ZM14.6976 53.6993C15.2563 53.6993 15.6431 53.4836 15.9439 53.0954C16.2018 52.7503 16.2877 52.362 16.2877 51.8875C16.2877 51.6718 16.2448 51.4561 16.2018 51.2405C16.0729 50.7228 15.772 50.4209 15.3852 50.2052C15.1704 50.1189 14.9555 50.0758 14.6976 50.0758H13.7521V53.6993H14.6976Z" fill="#06B7FE"/>
<path d="M21.23 54.8209C20.8432 54.8209 20.4564 54.7346 20.1126 54.6052C19.7688 54.4326 19.4679 54.2169 19.2101 53.915C18.9952 53.6561 18.8233 53.311 18.6944 52.9659C18.6084 52.6209 18.5225 52.2758 18.5225 51.8875C18.5225 51.4993 18.5654 51.1542 18.6944 50.8091C18.8233 50.464 18.9952 50.1189 19.2101 49.8601C19.4679 49.5581 19.7688 49.3424 20.1126 49.1699C20.4564 49.0405 20.8432 48.9542 21.23 48.9542C21.6168 48.9542 22.0035 49.0405 22.3474 49.1699C22.6912 49.3424 22.992 49.5581 23.2499 49.8601C23.4647 50.1189 23.6366 50.464 23.7656 50.8091C23.8515 51.1542 23.9375 51.4993 23.9375 51.8875C23.9375 52.2758 23.8945 52.6209 23.7656 52.9659C23.6366 53.311 23.4647 53.6561 23.2499 53.915C22.992 54.2169 22.6912 54.4326 22.3474 54.6052C22.0035 54.7346 21.6597 54.8209 21.23 54.8209ZM21.23 53.8287C21.7887 53.8287 22.1755 53.613 22.4763 53.1816C22.7341 52.8365 22.8201 52.4052 22.8201 51.8875C22.8201 51.3699 22.6912 50.9385 22.4763 50.5934C22.1755 50.162 21.7457 49.9463 21.23 49.9463C20.7143 49.9463 20.2845 50.162 19.9837 50.5934C19.7258 50.9385 19.6398 51.3699 19.6398 51.8875C19.6398 52.4052 19.7688 52.8365 19.9837 53.1816C20.2845 53.613 20.7143 53.8287 21.23 53.8287Z" fill="#06B7FE"/>
<path d="M30.3838 54.7346H29.6961C29.6532 54.7346 29.6102 54.7346 29.5672 54.6914C29.5242 54.6483 29.5242 54.6052 29.5242 54.562V51.0248L27.9771 53.4405C27.9341 53.4836 27.8911 53.5267 27.8052 53.5267C27.7192 53.5267 27.6762 53.4836 27.6333 53.4405L26.0861 51.0248V54.562C26.0861 54.6052 26.0861 54.6483 26.0431 54.6914C26.0002 54.7346 25.9572 54.7346 25.9142 54.7346H25.2266C25.1836 54.7346 25.1406 54.7346 25.0977 54.6914C25.0547 54.6483 25.0547 54.6052 25.0547 54.562V49.2993C25.0547 49.2561 25.0547 49.213 25.0977 49.1699C25.1406 49.1267 25.1836 49.1267 25.2266 49.1267H25.9572C26.0431 49.1267 26.0861 49.1699 26.1291 49.213L27.8052 51.8444L29.4812 49.213C29.5242 49.1699 29.5672 49.1267 29.6532 49.1267H30.3838C30.4267 49.1267 30.4697 49.1267 30.5127 49.1699C30.5557 49.213 30.5557 49.2561 30.5557 49.2993V54.562C30.5557 54.6052 30.5557 54.6483 30.5127 54.6914C30.5127 54.6914 30.4697 54.7346 30.3838 54.7346Z" fill="#06B7FE"/>
<path d="M35.6705 54.7346H32.3614C32.3184 54.7346 32.2754 54.7346 32.2324 54.6914C32.1895 54.6483 32.1895 54.6052 32.1895 54.562V49.2993C32.1895 49.2561 32.1895 49.213 32.2324 49.1699C32.2754 49.1267 32.3184 49.1267 32.3614 49.1267H35.6705C35.7135 49.1267 35.7565 49.1267 35.7995 49.1699C35.8424 49.213 35.8424 49.2561 35.8424 49.2993V49.9032C35.8424 49.9463 35.8424 49.9895 35.7995 50.0326C35.7565 50.0758 35.7135 50.0758 35.6705 50.0758H33.2639V51.3699H35.4557C35.4986 51.3699 35.5416 51.3699 35.5846 51.413C35.6276 51.4561 35.6276 51.4993 35.6276 51.5424V52.1463C35.6276 52.1895 35.6276 52.2326 35.5846 52.2758C35.5416 52.3189 35.4986 52.3189 35.4557 52.3189H33.2639V53.6561H35.6705C35.7135 53.6561 35.7565 53.6561 35.7995 53.6993C35.8424 53.7424 35.8424 53.7856 35.8424 53.8287V54.4326C35.8424 54.4758 35.8424 54.5189 35.7995 54.562C35.7565 54.6914 35.7135 54.7346 35.6705 54.7346Z" fill="#06B7FE"/>
<path d="M41.3435 54.7346H40.6559C40.5699 54.7346 40.527 54.6915 40.484 54.6483L38.2062 51.0679V54.5189C38.2062 54.562 38.2062 54.6052 38.1633 54.6483C38.1203 54.6915 38.0773 54.6915 38.0343 54.6915H37.3467C37.3037 54.6915 37.2608 54.6915 37.2178 54.6483C37.1748 54.6052 37.1748 54.562 37.1748 54.5189V49.2562C37.1748 49.213 37.1748 49.1699 37.2178 49.1268C37.2608 49.0836 37.3037 49.0836 37.3467 49.0836H38.0343C38.1203 49.0836 38.1633 49.1268 38.2062 49.1699L40.484 52.7503V49.2562C40.484 49.213 40.484 49.1699 40.527 49.1268C40.5699 49.0836 40.6129 49.0836 40.6559 49.0836H41.3435C41.3865 49.0836 41.4295 49.0836 41.4724 49.1268C41.5154 49.1699 41.5154 49.213 41.5154 49.2562V54.5189C41.5154 54.562 41.5154 54.6052 41.4724 54.6483C41.4724 54.6915 41.4295 54.7346 41.3435 54.7346Z" fill="#06B7FE"/>
<path d="M44.8246 54.7346H44.137C44.094 54.7346 44.051 54.7346 44.0081 54.6915C43.9651 54.6483 43.9651 54.6052 43.9651 54.562V50.1189H42.7188C42.6758 50.1189 42.6328 50.1189 42.5899 50.0758C42.5469 50.0326 42.5469 49.9895 42.5469 49.9464V49.3424C42.5469 49.2993 42.5469 49.2562 42.5899 49.213C42.6328 49.1699 42.6758 49.1699 42.7188 49.1699H46.2428C46.2858 49.1699 46.3288 49.1699 46.3718 49.213C46.4147 49.2562 46.4147 49.2993 46.4147 49.3424V49.9464C46.4147 49.9895 46.4147 50.0326 46.3718 50.0758C46.3288 50.1189 46.2858 50.1189 46.2428 50.1189H44.9965V54.562C44.9965 54.6052 44.9965 54.6483 44.9535 54.6915C44.9535 54.6915 44.8676 54.7346 44.8246 54.7346Z" fill="#06B7FE"/>
<path d="M30.4273 0H16.5889V35.4157H30.4273V0Z" fill="#06B7FE"/>
<path d="M47.0161 47.6235V0H33.1777V39.2549L47.0161 47.6235Z" fill="#146CF7"/>
<path d="M0 47.6235V0H13.8384V39.2549L0 47.6235Z" fill="#146CF7"/>
</g>
<defs>
<clipPath id="clip0">
<rect width="47.0161" height="55" fill="white"/>
</clipPath>
</defs>
</svg>
